<svg width="180" height="180" viewBox="0 0 180 180" fill="none" xmlns="http://www.w3.org/2000/svg">
<rect width="180" height="180" fill="#D9D9D9"/>
<ellipse cx="90.5" cy="61" rx="34.5" ry="35" fill="#585858"/>
<ellipse cx="90.5" cy="61" rx="34.5" ry="35" fill="#585858"/>
<ellipse cx="90.5" cy="61" rx="34.5" ry="35" fill="#585858"/>
<path fill-rule="evenodd" clip-rule="evenodd" d="M168 180C168 136.922 133.078 102 90 102C46.9218 102 12 136.922 12 180H168Z" fill="#585858"/>
<path fill-rule="evenodd" clip-rule="evenodd" d="M168 180C168 136.922 133.078 102 90 102C46.9218 102 12 136.922 12 180H168Z" fill="#585858"/>
<path fill-rule="evenodd" clip-rule="evenodd" d="M168 180C168 136.922 133.078 102 90 102C46.9218 102 12 136.922 12 180H168Z" fill="#585858"/>
</svg>
